<svg width="24" height="24" viewBox="0 0 24 24" fill="none" xmlns="http://www.w3.org/2000/svg">
    <path d="M18.4615 8H5.53846C5.23962 8 5 8.2225 5 8.5V18C5 19.1025 5.96654 20 7.15385 20H16.8462C18.0335 20 19 19.1025 19 18V8.5C19 8.2225 18.7604 8 18.4615 8ZM17.9231 18C17.9231 18.5525 17.4412 19 16.8462 19H7.15385C6.55885 19 6.07692 18.5525 6.07692 18V9H17.9231V18ZM5.53846 7H18.4615C18.7604 7 19 6.7775 19 6.5C19 6.2225 18.7604 6 18.4615 6H14.6923C14.6923 4.8975 13.7258 4 12.5385 4H11.4615C10.2742 4 9.30769 4.8975 9.30769 6H5.53846C5.23962 6 5 6.2225 5 6.5C5 6.7775 5.23962 7 5.53846 7ZM11.4615 5H12.5385C13.1335 5 13.6154 5.4475 13.6154 6H10.3846C10.3846 5.4475 10.8665 5 11.4615 5ZM11.4615 17V11C11.4615 10.7225 11.7012 10.5 12 10.5C12.2988 10.5 12.5385 10.7225 12.5385 11V17C12.5385 17.2775 12.2988 17.5 12 17.5C11.7012 17.5 11.4615 17.2775 11.4615 17ZM14.1538 17V11C14.1538 10.7225 14.3935 10.5 14.6923 10.5C14.9912 10.5 15.2308 10.7225 15.2308 11V17C15.2308 17.2775 14.9912 17.5 14.6923 17.5C14.3935 17.5 14.1538 17.2775 14.1538 17ZM8.76923 17V11C8.76923 10.7225 9.00885 10.5 9.30769 10.5C9.60654 10.5 9.84615 10.7225 9.84615 11V17C9.84615 17.2775 9.60654 17.5 9.30769 17.5C9.00885 17.5 8.76923 17.2775 8.76923 17Z" fill="#E84419"/>
</svg>
